# Blender v2.79 (sub 0) OBJ File: ''
# www.blender.org
mtllib Cone2.mtl
o Cone2
v 73.836952 118.382690 -128.670410
v 66.965576 119.594299 -128.670410
v 60.000000 60.000000 0.000000
v 80.521210 116.381554 -128.670410
v 86.927948 113.617958 -128.670410
v 92.970535 110.129265 -128.670410
v 98.567253 105.962662 -128.670410
v 103.642418 101.174500 -128.670410
v 108.127388 95.829514 -128.670410
v 111.961525 89.999992 -128.670410
v 115.092964 83.764786 -128.670410
v 117.479370 77.208191 -128.670410
v 119.088463 70.418884 -128.670410
v 119.898483 63.488693 -128.670410
v 119.898483 56.511311 -128.670410
v 119.088463 49.581108 -128.670410
v 117.479370 42.791805 -128.670410
v 115.092964 36.235214 -128.670410
v 111.961525 30.000000 -128.670410
v 108.127388 24.170485 -128.670410
v 103.642418 18.825500 -128.670410
v 98.567253 14.037333 -128.670410
v 92.970535 9.870730 -128.670410
v 86.927948 6.382041 -128.670410
v 80.521210 3.618442 -128.670410
v 73.836952 1.617305 -128.670410
v 66.965576 0.405699 -128.670410
v 60.000000 0.000000 -128.670410
v 53.034424 0.405699 -128.670410
v 46.163044 1.617305 -128.670410
v 39.478790 3.618442 -128.670410
v 33.072048 6.382041 -128.670410
v 27.029459 9.870730 -128.670410
v 21.432743 14.037333 -128.670410
v 16.357578 18.825500 -128.670410
v 11.872608 24.170485 -128.670410
v 8.038476 30.000000 -128.670410
v 4.907031 36.235214 -128.670410
v 2.520628 42.791805 -128.670410
v 0.911534 49.581108 -128.670410
v 0.101510 56.511311 -128.670410
v 0.101510 63.488693 -128.670410
v 0.911534 70.418884 -128.670410
v 2.520628 77.208191 -128.670410
v 4.907031 83.764786 -128.670410
v 8.038476 89.999992 -128.670410
v 11.872608 95.829514 -128.670410
v 16.357578 101.174500 -128.670410
v 21.432743 105.962662 -128.670410
v 27.029459 110.129265 -128.670410
v 33.072048 113.617958 -128.670410
v 39.478790 116.381554 -128.670410
v 46.163044 118.382690 -128.670410
v 53.034424 119.594299 -128.670410
v 60.000000 120.000000 -128.670410
v 60.000000 60.000000 -128.670410
vn 0.1574 0.8928 0.4220
vn 0.2600 0.8685 0.4220
vn 0.3591 0.8324 0.4220
vn 0.4533 0.7851 0.4220
vn 0.5414 0.7272 0.4220
vn 0.6221 0.6594 0.4220
vn 0.6945 0.5827 0.4220
vn 0.7574 0.4982 0.4220
vn 0.8102 0.4069 0.4220
vn 0.8519 0.3101 0.4220
vn 0.8821 0.2091 0.4220
vn 0.9005 0.1052 0.4220
vn 0.9066 0.0000 0.4220
vn 0.9005 -0.1052 0.4220
vn 0.8821 -0.2091 0.4220
vn 0.8519 -0.3101 0.4220
vn 0.8102 -0.4069 0.4220
vn 0.7574 -0.4982 0.4220
vn 0.6945 -0.5827 0.4220
vn 0.6221 -0.6594 0.4220
vn 0.5414 -0.7272 0.4220
vn 0.4533 -0.7851 0.4220
vn 0.3591 -0.8324 0.4220
vn 0.2600 -0.8685 0.4220
vn 0.1574 -0.8928 0.4220
vn 0.0527 -0.9050 0.4220
vn -0.0527 -0.9050 0.4220
vn -0.1574 -0.8928 0.4220
vn -0.2600 -0.8685 0.4220
vn -0.3591 -0.8324 0.4220
vn -0.4533 -0.7851 0.4220
vn -0.5414 -0.7272 0.4220
vn -0.6221 -0.6594 0.4220
vn -0.6945 -0.5827 0.4220
vn -0.7574 -0.4982 0.4220
vn -0.8102 -0.4069 0.4220
vn -0.8519 -0.3101 0.4220
vn -0.8821 -0.2091 0.4220
vn -0.9005 -0.1052 0.4220
vn -0.9066 0.0000 0.4220
vn -0.9005 0.1052 0.4220
vn -0.8821 0.2091 0.4220
vn -0.8519 0.3101 0.4220
vn -0.8102 0.4069 0.4220
vn -0.7574 0.4982 0.4220
vn -0.6945 0.5827 0.4220
vn -0.6221 0.6594 0.4220
vn -0.5414 0.7272 0.4220
vn -0.4533 0.7851 0.4220
vn -0.3591 0.8324 0.4220
vn -0.2600 0.8685 0.4220
vn -0.1574 0.8928 0.4220
vn -0.0527 0.9050 0.4220
vn 0.0527 0.9050 0.4220
vn 0.0000 0.0000 -1.0000
usemtl None
s off
f 1//1 2//1 3//1
f 1//2 3//2 4//2
f 5//3 4//3 3//3
f 6//4 5//4 3//4
f 7//5 6//5 3//5
f 8//6 7//6 3//6
f 9//7 8//7 3//7
f 10//8 9//8 3//8
f 11//9 10//9 3//9
f 12//10 11//10 3//10
f 13//11 12//11 3//11
f 14//12 13//12 3//12
f 15//13 14//13 3//13
f 16//14 15//14 3//14
f 17//15 16//15 3//15
f 18//16 17//16 3//16
f 19//17 18//17 3//17
f 20//18 19//18 3//18
f 21//19 20//19 3//19
f 22//20 21//20 3//20
f 23//21 22//21 3//21
f 24//22 23//22 3//22
f 25//23 24//23 3//23
f 26//24 25//24 3//24
f 27//25 26//25 3//25
f 28//26 27//26 3//26
f 29//27 28//27 3//27
f 30//28 29//28 3//28
f 31//29 30//29 3//29
f 32//30 31//30 3//30
f 33//31 32//31 3//31
f 34//32 33//32 3//32
f 35//33 34//33 3//33
f 36//34 35//34 3//34
f 37//35 36//35 3//35
f 38//36 37//36 3//36
f 39//37 38//37 3//37
f 40//38 39//38 3//38
f 41//39 40//39 3//39
f 42//40 41//40 3//40
f 43//41 42//41 3//41
f 44//42 43//42 3//42
f 45//43 44//43 3//43
f 46//44 45//44 3//44
f 47//45 46//45 3//45
f 48//46 47//46 3//46
f 49//47 48//47 3//47
f 50//48 49//48 3//48
f 51//49 50//49 3//49
f 52//50 51//50 3//50
f 53//51 52//51 3//51
f 54//52 53//52 3//52
f 55//53 54//53 3//53
f 2//54 55//54 3//54
f 26//55 27//55 56//55
f 56//55 27//55 28//55
f 56//55 28//55 29//55
f 23//55 24//55 56//55
f 56//55 24//55 25//55
f 56//55 25//55 26//55
f 20//55 21//55 56//55
f 56//55 21//55 22//55
f 56//55 22//55 23//55
f 17//55 18//55 56//55
f 56//55 18//55 19//55
f 56//55 19//55 20//55
f 14//55 15//55 56//55
f 56//55 15//55 16//55
f 56//55 16//55 17//55
f 11//55 12//55 56//55
f 56//55 12//55 13//55
f 56//55 13//55 14//55
f 8//55 9//55 56//55
f 56//55 9//55 10//55
f 56//55 10//55 11//55
f 5//55 6//55 56//55
f 56//55 6//55 7//55
f 56//55 7//55 8//55
f 2//55 1//55 56//55
f 56//55 1//55 4//55
f 56//55 4//55 5//55
f 53//55 54//55 56//55
f 56//55 54//55 55//55
f 56//55 55//55 2//55
f 50//55 51//55 56//55
f 56//55 51//55 52//55
f 56//55 52//55 53//55
f 47//55 48//55 56//55
f 56//55 48//55 49//55
f 56//55 49//55 50//55
f 44//55 45//55 56//55
f 56//55 45//55 46//55
f 56//55 46//55 47//55
f 41//55 42//55 56//55
f 56//55 42//55 43//55
f 56//55 43//55 44//55
f 38//55 39//55 56//55
f 56//55 39//55 40//55
f 56//55 40//55 41//55
f 35//55 36//55 56//55
f 56//55 36//55 37//55
f 56//55 37//55 38//55
f 32//55 33//55 56//55
f 56//55 33//55 34//55
f 56//55 34//55 35//55
f 29//55 30//55 56//55
f 56//55 30//55 31//55
f 56//55 31//55 32//55
